<svg version="1.2" xmlns="http://www.w3.org/2000/svg" viewBox="0 0 75 17" width="75" height="17">
	<style>
		.s0 { fill: #ffffff } 
		.s1 { fill: none;stroke: #ffffff;stroke-linecap: round;stroke-miterlimit:100;stroke-width: 1.5 } 
	</style>
	<g id="Logo">
		<path id="BOOKLY" class="s0" d="m13.71 14.2q-1.9-1.89-1.9-4.65 0-2.75 1.9-4.65 1.9-1.9 4.64-1.9 2.73 0 4.64 1.9 1.91 1.9 1.91 4.65 0 2.76-1.91 4.66-1.91 1.89-4.64 1.89-2.74 0-4.64-1.9zm54.5 1.65v-4.91l-4.3-7.69h2.81l2.74 5.26 2.73-5.26h2.81l-4.32 7.69v4.91zm-11.74 0v-12.6h2.48v10.23h4.81v2.37zm-5.59 0l-4.5-5.9v5.9h-2.48v-12.6h2.48v5.56l4.32-5.56h2.86l-4.66 6.12 4.84 6.48zm-50.88 0v-12.6h4.97q1.62 0 2.72 1 1.11 1 1.11 2.55 0 1.56-1.19 2.52 1.66 0.95 1.66 2.88 0 1.6-1.14 2.63-1.13 1.02-2.79 1.02zm29.47-4.65q-1.9-1.89-1.9-4.65 0-2.75 1.9-4.65 1.9-1.9 4.64-1.9 2.73 0 4.64 1.9 1.91 1.9 1.91 4.65 0 2.76-1.91 4.66-1.91 1.89-4.64 1.89-2.74 0-4.64-1.9z"/>
		<path id="Path 72" fill-rule="evenodd" class="s1" d="m29.83 15.85h9"/>
	</g>
</svg>